HIERARCHY
ROOT Hips
{
	OFFSET 56.877701 -32.693596 43.373703
	CHANNELS 6 Xposition Yposition Zposition Zrotation Xrotation Yrotation
	JOINT Chest
	{
		OFFSET -0.779999 1.005800 5.403099
		CHANNELS 6 Xposition Yposition Zposition Zrotation Xrotation Yrotation
		JOINT Chest2
		{
			OFFSET 0.000000 0.000000 4.236801
			CHANNELS 6 Xposition Yposition Zposition Zrotation Xrotation Yrotation
			JOINT Neck
			{
				OFFSET 0.000000 0.000000 9.874401
				CHANNELS 6 Xposition Yposition Zposition Zrotation Xrotation Yrotation
				JOINT Head
				{
					OFFSET 0.000000 0.000002 2.173893
					CHANNELS 6 Xposition Yposition Zposition Zrotation Xrotation Yrotation
					End Site
					{
						OFFSET 0.000000 0.000000 6.508102
					}
				}
			}
			JOINT LeftCollar
			{
				OFFSET 2.681599 -0.377600 5.432499
				CHANNELS 6 Xposition Yposition Zposition Zrotation Xrotation Yrotation
				JOINT LeftShoulder
				{
					OFFSET 5.161499 0.000000 0.000000
					CHANNELS 6 Xposition Yposition Zposition Zrotation Xrotation Yrotation
					JOINT LeftElbow
					{
						OFFSET 0.000000 0.000000 -10.869099
						CHANNELS 6 Xposition Yposition Zposition Zrotation Xrotation Yrotation
						JOINT LeftWrist
						{
							OFFSET 0.000000 0.000000 -13.344799
							CHANNELS 6 Xposition Yposition Zposition Zrotation Xrotation Yrotation
							End Site
							{
								OFFSET 0.000000 0.000000 -2.173901
							}
						}
					}
				}
			}
			JOINT RightCollar
			{
				OFFSET -2.381901 -1.419600 6.136600
				CHANNELS 6 Xposition Yposition Zposition Zrotation Xrotation Yrotation
				JOINT RightShoulder
				{
					OFFSET -4.550499 0.000000 0.000000
					CHANNELS 6 Xposition Yposition Zposition Zrotation Xrotation Yrotation
					JOINT RightElbow
					{
						OFFSET 0.000000 0.000000 -11.106499
						CHANNELS 6 Xposition Yposition Zposition Zrotation Xrotation Yrotation
						JOINT RightWrist
						{
							OFFSET 0.000000 0.000000 -12.874298
							CHANNELS 6 Xposition Yposition Zposition Zrotation Xrotation Yrotation
							End Site
							{
								OFFSET 0.000000 0.000000 -2.173901
							}
						}
					}
				}
			}
		}
	}
	JOINT LeftHip
	{
		OFFSET 2.431900 0.469601 -2.489399
		CHANNELS 6 Xposition Yposition Zposition Zrotation Xrotation Yrotation
		JOINT LeftKnee
		{
			OFFSET 0.000000 -0.000004 -18.200201
			CHANNELS 6 Xposition Yposition Zposition Zrotation Xrotation Yrotation
			JOINT LeftAnkle
			{
				OFFSET 0.000000 0.000000 -16.279900
				CHANNELS 6 Xposition Yposition Zposition Zrotation Xrotation Yrotation
				End Site
				{
					OFFSET 0.000000 -8.394100 0.000000
				}
			}
		}
	}
	JOINT RightHip
	{
		OFFSET -1.987999 -0.073502 -2.713001
		CHANNELS 6 Xposition Yposition Zposition Zrotation Xrotation Yrotation
		JOINT RightKnee
		{
			OFFSET 0.000000 -0.000004 -19.547802
			CHANNELS 6 Xposition Yposition Zposition Zrotation Xrotation Yrotation
			JOINT RightAnkle
			{
				OFFSET 0.000000 0.000000 -14.881199
				CHANNELS 6 Xposition Yposition Zposition Zrotation Xrotation Yrotation
				End Site
				{
					OFFSET 0.000000 -7.922699 0.000000
				}
			}
		}
	}
}
MOTION
Frames: 8
Frame Time: 0.041667
67.507301 -37.752396 43.298599 4339.022689 9.867748 -2.089278 -0.780003 1.005802 5.403100 -19.083110 -10.981605 0.437956 0.000013 0.000001 4.236804 13.649978 1.763720 1.261862 -0.000009 0.000008 9.874399 -34.714378 14.169599 4.039736 -0.000001 0.000004 2.173893 -1.587656 4.360873 -9.966934 2.681591 -0.377599 5.432496 3.428815 -8.381935 -18.225740 5.161502 -0.000002 0.000003 161.287541 -159.455465 96.717637 -0.000006 -0.000004 -10.869106 130.433882 -39.203145 173.773960 0.000007 0.000001 -13.344799 -31.888797 -7.999864 24.895058 -2.381896 -1.419597 6.136590 6.335529 -2.684933 16.576174 -4.550509 -0.000009 0.000006 -1221.499666 -529.335945 -442.225297 -0.000003 -0.000011 -11.106483 585.365899 -33.771898 556.179353 -0.000009 -0.000001 -12.874294 -307.213931 9.786487 -17.127570 2.431898 0.469607 -2.489400 -346.638603 -21.590295 5.960333 -0.000006 0.000005 -18.200199 351.786871 36.148322 6.254986 -0.000005 0.000002 -16.279902 -24.047942 30.253783 -11.424081 -1.987997 -0.073496 -2.712995 -69.595796 -39.667782 -61.776725 0.000008 0.000001 -19.547798 -1859.562387 81.986408 98.435942 -0.000012 0.000004 -14.881192 2191.831091 76.170604 -381.756813
67.464996 -37.730499 43.246201 4339.494792 9.948210 -2.432039 -0.779992 1.005807 5.403088 -19.471093 -11.097204 0.295507 0.000023 -0.000000 4.236793 14.073317 1.744274 1.328586 -0.000008 0.000003 9.874399 -35.775988 13.518024 5.299414 0.000003 0.000003 2.173903 -1.291036 4.336212 -10.389058 2.681593 -0.377596 5.432498 3.674975 -7.997557 -17.053007 5.161514 -0.000004 0.000005 162.218263 -161.223173 95.647059 0.000000 -0.000005 -10.869093 129.225485 -39.465769 171.461107 0.000010 0.000017 -13.344804 -32.987488 -8.658401 23.915472 -2.381906 -1.419598 6.136591 6.651655 -2.457694 16.506288 -4.550513 -0.000008 -0.000000 -1221.574087 -534.329305 -442.514433 -0.000003 -0.000010 -11.106491 581.007146 -34.321991 556.364370 -0.000018 0.000000 -12.874297 -305.254924 9.599670 -15.837115 2.431900 0.469604 -2.489402 -346.564454 -21.836135 6.261079 -0.000004 -0.000010 -18.200201 351.241986 36.439500 6.591034 0.000005 0.000005 -16.279898 -24.039580 30.246577 -11.311200 -1.988000 -0.073497 -2.713011 -68.588623 -39.564175 -60.728715 -0.000007 0.000006 -19.547794 -1838.229903 78.247849 74.616292 0.000009 0.000002 -14.881196 2193.818731 76.495708 -379.426379
67.435997 -37.715694 43.185501 4339.934546 10.027968 -2.739664 -0.779995 1.005800 5.403104 -19.826569 -11.290221 0.107054 -0.000005 0.000000 4.236796 14.578982 1.746689 1.418768 -0.000009 0.000002 9.874399 -36.726095 12.866896 6.444945 0.000000 -0.000001 2.173892 -1.109047 4.500200 -10.628064 2.681605 -0.377596 5.432511 3.906360 -7.523979 -16.312372 5.161498 -0.000006 -0.000002 163.237683 -161.081733 94.998745 0.000008 -0.000005 -10.869095 125.050546 -39.840411 168.304044 0.000005 0.000007 -13.344793 -34.827445 -9.552431 23.322350 -2.381899 -1.419594 6.136600 6.865056 -2.587606 17.215803 -4.550508 -0.000011 0.000013 -1221.103078 -535.406125 -443.534754 -0.000003 -0.000006 -11.106490 580.617661 -34.964756 556.827620 0.000004 0.000004 -12.874304 -303.514673 9.334552 -14.226858 2.431899 0.469604 -2.489387 -346.636772 -22.053057 6.579739 -0.000002 -0.000002 -18.200201 350.907088 36.699057 6.656664 0.000000 0.000001 -16.279900 -24.327981 30.114157 -10.629448 -1.988001 -0.073490 -2.712997 -67.503183 -39.441522 -59.542447 -0.000010 0.000002 -19.547798 -1828.688620 73.997361 62.323495 -0.000007 0.000009 -14.881194 2196.279129 76.876457 -377.770687
67.412506 -37.695896 43.124001 4340.199011 10.156653 -3.207305 -0.779998 1.005796 5.403089 -19.985489 -11.543973 0.193209 -0.000003 -0.000007 4.236794 14.815073 1.744326 1.456345 0.000013 0.000000 9.874411 -37.445853 12.207091 7.394220 0.000000 -0.000000 2.173888 -0.717634 4.427350 -10.818235 2.681606 -0.377596 5.432501 4.445529 -7.747075 -15.936402 5.161496 0.000008 -0.000000 164.197707 -161.571007 94.790035 0.000004 -0.000005 -10.869097 120.741161 -40.369939 164.947538 0.000011 -0.000004 -13.344803 -37.193973 -10.632866 22.824966 -2.381896 -1.419596 6.136597 7.328639 -2.302128 17.274122 -4.550500 -0.000010 0.000002 -1220.569121 -536.440544 -443.871154 0.000000 -0.000002 -11.106478 579.875411 -35.784939 556.993785 -0.000014 0.000001 -12.874293 -302.193223 8.727429 -12.329196 2.431895 0.469601 -2.489398 -346.379274 -22.265998 7.150712 -0.000003 0.000000 -18.200199 348.567038 37.083675 7.525569 0.000007 0.000004 -16.279900 -23.143888 29.314629 -9.968326 -1.988003 -0.073503 -2.713009 -66.169903 -39.479962 -58.172195 0.000001 0.000005 -19.547802 -1824.062670 69.574247 54.651885 -0.000003 0.000003 -14.881199 2199.819462 77.450712 -377.012864
67.388702 -37.677597 43.060101 4340.496698 10.015689 -3.788167 -0.779998 1.005808 5.403096 -20.163608 -11.611537 0.613768 0.000005 -0.000001 4.236790 15.123179 1.753097 1.483765 -0.000001 0.000003 9.874409 -37.715461 11.689849 7.971038 0.000004 0.000004 2.173893 -0.635457 4.402046 -10.675564 2.681604 -0.377597 5.432501 4.798889 -8.136207 -15.862493 5.161500 -0.000004 0.000004 165.351257 -161.771419 94.875706 0.000008 0.000000 -10.869093 113.148108 -40.549327 159.467814 0.000016 -0.000010 -13.344807 -41.733221 -12.100039 22.511315 -2.381906 -1.419597 6.136598 7.378951 -2.398527 17.203711 -4.550500 -0.000005 0.000006 -1219.571913 -537.741777 -444.331891 -0.000003 -0.000011 -11.106488 579.175890 -36.787228 557.235792 0.000005 0.000007 -12.874297 -300.779401 8.842681 -10.567776 2.431898 0.469611 -2.489397 -346.083281 -22.261398 7.847565 -0.000003 0.000005 -18.200203 346.540439 37.594386 8.210457 0.000002 0.000005 -16.279898 -22.259119 28.540287 -9.335042 -1.988008 -0.073493 -2.712997 -64.576399 -39.475970 -56.355020 -0.000009 0.000002 -19.547800 -1820.760574 65.877830 48.376901 -0.000003 0.000004 -14.881198 2202.688578 77.638275 -376.661109
67.366592 -37.658195 42.990608 4340.703025 10.032351 -4.220885 -0.780003 1.005805 5.403094 -20.262741 -11.701698 0.651755 -0.000003 0.000000 4.236805 15.573700 1.803731 1.572701 -0.000004 0.000008 9.874387 -38.283104 10.981072 8.718237 0.000001 0.000002 2.173883 -0.503950 4.431868 -10.602702 2.681600 -0.377598 5.432494 5.239778 -8.098017 -15.507705 5.161504 -0.000005 0.000001 166.009879 -161.813807 94.716706 0.000006 0.000004 -10.869112 105.773737 -40.764922 153.699255 0.000006 -0.000004 -13.344803 -46.661254 -13.675580 22.181082 -2.381896 -1.419597 6.136593 7.576421 -2.712575 17.320945 -4.550505 -0.000009 -0.000011 -1218.830209 -539.170051 -445.054279 0.000010 -0.000002 -11.106484 577.993338 -37.997678 557.164922 0.000002 -0.000002 -12.874306 -299.354706 8.442427 -8.409054 2.431903 0.469601 -2.489404 -345.652815 -22.483101 8.480963 0.000002 -0.000006 -18.200193 344.849394 38.155073 8.770000 0.000005 0.000002 -16.279900 -21.555459 28.017936 -8.816356 -1.988004 -0.073497 -2.713001 -63.035502 -39.387929 -54.755834 -0.000003 0.000003 -19.547796 -1818.892271 62.444226 43.502424 -0.000004 0.000000 -14.881195 2205.598785 77.687774 -376.835252
67.347198 -37.637295 42.911999 4340.841596 9.700927 -4.855364 -0.779995 1.005802 5.403102 -20.270680 -11.525662 1.143672 -0.000005 0.000001 4.236795 15.981808 1.720926 1.632359 -0.000000 0.000004 9.874392 -38.756580 10.310945 9.420530 0.000001 0.000007 2.173897 -0.421736 4.429149 -10.562898 2.681598 -0.377597 5.432495 5.468881 -8.203137 -15.187312 5.161496 -0.000006 -0.000001 166.808683 -159.496433 94.492129 -0.000002 0.000003 -10.869106 99.264403 -43.279606 149.112565 0.000012 0.000003 -13.344798 -47.360822 -14.762496 22.111228 -2.381898 -1.419595 6.136596 7.992919 -2.358817 16.827501 -4.550498 -0.000008 -0.000006 -1218.433293 -540.576305 -445.054662 0.000006 -0.000002 -11.106493 576.732977 -39.495695 557.255409 -0.000003 0.000001 -12.874300 -299.077263 8.576494 -9.097799 2.431898 0.469604 -2.489394 -345.387066 -22.294989 9.190169 -0.000004 -0.000006 -18.200203 342.852656 38.650022 9.536954 -0.000002 0.000006 -16.279903 -20.548453 27.236062 -8.273807 -1.988000 -0.073499 -2.712996 -61.290525 -39.180226 -52.702935 0.000002 -0.000005 -19.547792 -1817.739117 59.241318 39.432581 0.000001 -0.000006 -14.881196 2208.946999 77.680691 -377.491742
67.336304 -37.608192 42.835903 4340.897548 9.448125 -5.441350 -0.780006 1.005797 5.403106 -20.205371 -11.323037 1.481969 0.000008 -0.000000 4.236800 16.085995 1.735124 1.596422 -0.000008 0.000000 9.874403 -38.890196 9.350192 10.264419 0.000002 0.000001 2.173904 -0.444264 4.444284 -10.654981 2.681600 -0.377601 5.432509 6.020957 -9.182350 -15.051288 5.161497 0.000007 0.000005 167.716798 -159.453853 95.049759 0.000000 0.000005 -10.869106 92.415868 -44.612019 142.971992 -0.000004 0.000009 -13.344804 -49.267964 -16.204779 21.842042 -2.381907 -1.419608 6.136606 8.391839 -2.069521 17.278434 -4.550499 0.000000 0.000004 -1217.609081 -541.308556 -445.508432 -0.000003 -0.000004 -11.106479 575.681128 -41.150281 557.410645 0.000001 -0.000003 -12.874302 -297.725405 8.185831 -7.621371 2.431904 0.469604 -2.489395 -345.095991 -22.185604 9.899810 0.000008 -0.000009 -18.200193 340.821139 39.128450 10.409426 0.000004 0.000003 -16.279896 -19.219640 26.515802 -8.219228 -1.987999 -0.073503 -2.712999 -59.431211 -39.039271 -50.689962 -0.000003 0.000000 -19.547806 -1817.475308 56.077557 35.959139 0.000001 -0.000007 -14.881189 2212.757261 77.937274 -378.321719
